<?xml version="1.0" encoding="utf-8"?>
<!DOCTYPE svg PUBLIC "-//W3C//DTD SVG 20010904//EN" "http://www.w3.org/TR/2001/REC-SVG-20010904/DTD/svg10.dtd">
<svg version="1.0" xmlns="http://www.w3.org/2000/svg" width="640px" height="449px" viewBox="0 0 640 449" preserveAspectRatio="xMidYMid meet">
 <g fill="#000000">
  <path d="M164.5 399.1 c-9.9 -5.9 -25.1 -14.9 -33.7 -20 -8.7 -5.1 -16.2 -9.9 -16.8 -10.5 -0.7 -0.9 6.4 -8.3 26.6 -27.6 15.1 -14.4 27.3 -26.4 27 -26.7 -0.2 -0.2 -1.8 0.3 -3.5 1.1 -2.7 1.4 -12 1.6 -81.6 1.6 -43.2 0 -78.5 -0.3 -78.5 -0.7 0 -0.5 4.4 -0.8 9.7 -0.8 5.4 0 41.2 -0.1 79.5 -0.2 l69.7 -0.3 6.8 -4.6 c3.7 -2.6 12.4 -10.1 19.3 -16.8 21.6 -21.1 32.7 -28 45 -28 8.7 -0.1 14.4 2.1 29.2 10.8 16.6 9.9 20.6 11.3 26.6 9.7 2.6 -0.7 8 -3.1 12.2 -5.4 4.1 -2.3 10.4 -5.4 14 -6.9 l6.5 -2.7 -0.1 -10.8 c0 -8.7 -0.5 -12 -2.3 -16.8 -2.1 -5.5 -2.3 -7.1 -1.8 -18.5 0.4 -7.9 1.5 -16.9 3.2 -24.5 3.3 -15.4 4.9 -39.1 3.5 -53 -1.1 -10.4 -4.2 -18.9 -9.2 -24.7 l-2.3 -2.7 -6.5 2.1 c-5.5 1.9 -8.8 2.2 -21 2.3 -16.3 0 -20.5 -1 -24.5 -5.6 -6.5 -7.9 0.8 -19.9 12.1 -19.9 8.6 0 23 6.1 34.1 14.4 5.4 4.1 6.5 4.6 8.3 3.6 1.2 -0.6 2.6 -0.9 3.3 -0.7 0.7 0.2 0 1 -1.4 1.8 l-2.6 1.4 3.9 5.5 3.9 5.5 -0.7 -6.5 c-0.7 -6.7 -2.7 -11 -4.9 -11 -2.5 0 -11.2 -9 -14.2 -14.7 -5.8 -10.9 -8.8 -27.6 -8.1 -43.7 0.6 -14.3 4.5 -19.1 9.4 -11.8 4.8 7.1 13.1 36.5 16 56.7 1 6.6 2.1 12.4 2.5 12.9 0.4 0.4 9.1 -4.9 19.3 -11.8 21.7 -14.8 30.9 -19.6 37.7 -19.6 6.2 0 9.3 2.5 9.3 7.3 0 12.8 -34.4 28.9 -58.7 27.5 l-7.9 -0.5 0.7 5.1 c0.3 2.8 1.2 8.7 1.8 13.1 0.7 4.6 1.2 20 1.2 36.2 0 19.5 0.3 28.5 1.1 29.3 0.9 0.9 1.4 0.3 2.3 -2 2 -5.8 10.1 -16.8 17.3 -23.5 9.8 -9.1 21.3 -14.6 31.4 -15.3 5.7 -0.4 7.9 -0.1 9.9 1.2 5.7 3.7 1.9 13.4 -9.9 25.1 -13.3 13.2 -26.8 19.6 -42.1 20 l-8 0.2 -1.3 4.9 c-1.6 6.3 -3.1 21.7 -3.2 31.8 0 7 0.3 8.5 2.6 11.8 5.8 8.3 13.4 12 30.5 14.8 28.5 4.7 31.7 6.5 35.3 20.5 0.8 3.3 2.2 6.5 3 7.1 0.8 0.6 6.9 1.8 13.5 2.7 14.3 2 14.8 2.2 16.6 5.7 0.8 1.6 2.6 3 4.2 3.4 4.6 1 55.8 2.6 70.3 2.1 26.6 -0.9 136.5 -1.2 128.5 -0.4 -4.4 0.4 -48.7 0.9 -98.5 1.1 -70.7 0.2 -92.1 0 -98 -1 l-7.5 -1.3 -4.3 5.1 c-2.4 2.7 -5 5 -5.9 5 -0.8 0 -2.9 1.1 -4.6 2.4 -1.8 1.3 -10.8 6.8 -20.2 12.1 -9.3 5.4 -25.9 15.1 -36.7 21.7 -10.9 6.5 -23 13.5 -26.9 15.6 -6.7 3.4 -7.7 3.7 -14.8 3.4 -11 -0.3 -33.3 -3.8 -51.1 -7.8 -29.1 -6.6 -25.4 -6.2 -31.6 -3 -6.9 3.6 -15.1 12.4 -29.9 32.2 -8.9 11.8 -12.1 15.4 -13.8 15.4 -1.2 -0.1 -10.3 -4.9 -20.2 -10.9z m32.8 -5.5 c18.1 -24.3 28.7 -34.3 36.8 -34.8 1.9 -0.1 10.4 1.5 18.9 3.5 19.2 4.5 35.9 7.4 51.5 8.9 12 1.1 12.1 1.1 17.6 -1.4 3.1 -1.4 17.7 -9.8 32.5 -18.5 14.8 -8.8 32.1 -19 38.5 -22.7 15.2 -8.7 19.9 -12.1 19.9 -14.7 0 -3 2.6 -7.4 5.7 -9.7 l2.8 -2 -2.8 -0.7 c-7.3 -1.9 -19.8 3.4 -48.6 20.3 -19 11.2 -27.5 14.8 -38.1 16.2 -17.4 2.4 -46.6 -1.6 -55.9 -7.6 -1.7 -1.2 -2 -1.8 -1.1 -2.4 1.6 -1 5.9 -0.5 24 2.7 14.4 2.5 24.6 2.7 34.9 0.7 3.1 -0.7 3.2 -0.8 1.6 -2 -1.6 -1.2 -1.7 -2 -0.8 -6.6 0.5 -2.9 1.2 -5.9 1.4 -6.7 0.3 -1.1 -1.9 -1.7 -10.6 -2.7 -16.2 -1.9 -18.7 -2.7 -34 -11.8 -42.2 -25.2 -55.9 -27.7 -81.4 -14.9 -18.4 9.2 -30.1 18 -50.1 37.7 -10.2 10 -24.5 23.8 -31.9 30.7 l-13.4 12.5 19.9 11.9 c11 6.5 26.2 15.6 33.8 20.2 7.7 4.5 14.9 8.3 16.1 8.3 1.5 0 5 -3.9 12.8 -14.4z m146 -59.5 c3.1 -1.2 5.7 -2.6 5.7 -3 0 -0.8 -1.1 -0.6 -21.2 2.4 -9.7 1.4 -12.7 1.5 -18 0.6 -10.7 -2 -29.2 -5.1 -30.6 -5.1 -3.4 0 0.5 2 7.7 3.9 12.4 3.4 18.5 4 35.1 3.7 13.2 -0.3 16.4 -0.6 21.3 -2.5z m24.2 -12.5 c10.2 -6.5 37.1 -20.6 39.2 -20.6 0.7 0 1.3 -0.4 1.3 -0.9 0 -0.4 -2.7 -1.1 -6.1 -1.4 -7.5 -0.7 -9.2 -2.2 -10.8 -9.2 -2.7 -12.1 -9.9 -16.8 -28.7 -19 l-5.9 -0.7 7.5 3.9 c11.3 5.7 22.4 14.8 27.3 22.3 4.5 6.7 0.5 7 -12.2 1.1 -14.2 -6.6 -16.3 -7.1 -32.9 -7.1 l-14.4 0 -3.3 -3.3 c-2.2 -2.2 -3.6 -4.7 -4 -7.3 -1 -6.2 -1.3 -6.6 -3.7 -5.9 -1.3 0.3 -8.5 3.7 -16 7.6 -11.3 5.6 -14.7 6.9 -18.5 6.9 -5.3 0 -12.8 -3.2 -23.4 -9.8 -3.5 -2.3 -9.6 -5.6 -13.4 -7.4 -6.2 -2.9 -7.9 -3.3 -15.5 -3.3 -9.3 0 -12.7 1.3 -22.5 8.4 -6.3 4.5 -24.8 21.2 -24.2 21.8 0.3 0.2 3.6 -1.6 7.5 -4.1 9.1 -5.9 21.3 -12 28.1 -14 6.9 -2 19.5 -2.1 27.5 0 8 2 24.7 10.2 41.6 20.4 7.4 4.4 15.8 8.7 18.5 9.5 2.8 0.8 13.2 2.3 23.2 3.4 10 1.1 19.1 2.4 20.1 3 3 1.6 3.3 6.7 0.6 10.7 l-2.3 3.4 5.2 -2.6 c2.9 -1.5 7.5 -4.1 10.2 -5.8z m-19.4 5.1 c1.9 -1.2 3.5 -3 3.7 -3.9 0.4 -2.1 -4.3 -4.6 -10.2 -5.4 l-4.4 -0.6 -1.1 5.1 c-1.4 6.4 -1.4 5.9 0.7 6.4 4.2 1.1 8.1 0.6 11.3 -1.6z m6.9 -5.2 c0 -2.7 -2.8 -4.9 -7.5 -5.9 -2.8 -0.6 -2.9 -0.5 -1.1 0.9 1.1 0.8 2.6 1.5 3.3 1.5 1.8 0 4.6 4.7 3.7 6.1 -0.4 0.8 -0.3 0.9 0.4 0.5 0.7 -0.4 1.2 -1.8 1.2 -3.1z m63.6 -11.5 c1.5 -2.2 2.5 -4.3 2.2 -4.6 -0.7 -0.6 -6.8 6.3 -6.8 7.6 0 2.2 2.1 0.8 4.6 -3z m-27.6 -10.8 c0 -3.7 -13 -15.7 -23.8 -22.1 -9.9 -5.8 -16.4 -7.4 -28.2 -6.8 -5.8 0.2 -11.3 0.8 -12.2 1.2 -2.3 0.9 -2.3 4.9 0.1 10 3 6.8 3.6 7 20.5 7.1 16.7 0.2 22 1.4 34.6 8 6.6 3.4 9 4.1 9 2.6z m-52.6 -30.9 l6.9 -0.6 -3.9 -1.6 c-5.7 -2.3 -10.9 -5.8 -13.7 -9.1 -1.4 -1.6 -2.8 -2.6 -3.1 -2.3 -0.8 0.8 -0.8 11.7 0 13.8 0.5 1.3 1.4 1.5 3.8 1 1.7 -0.3 6.2 -0.9 10 -1.2z m-13.5 -55.1 c0.7 -3.5 1.6 -7.4 2.1 -8.6 0.5 -1.5 0.2 -3.2 -1 -5.6 -2.1 -4 -2 -4.1 -4.6 9.5 -2.2 11.2 -2.4 29.8 -0.4 34 1.3 2.8 1.4 2.2 2.1 -10 0.4 -7.1 1.2 -15.9 1.8 -19.3z m23.1 -11.9 c10.2 -2.8 20.9 -9.1 29.1 -17.2 8.2 -8.1 13.4 -16.8 12.5 -20.5 -0.3 -1.3 -1.7 -2.8 -3.1 -3.4 -8.3 -3.8 -26.2 3.1 -39.1 15 -7.8 7.2 -18.2 23.3 -17 26.3 1 2.6 7.7 2.5 17.6 -0.2z m-43.6 -80 c3.3 -1 6.1 -2.3 6.3 -2.8 0.4 -1.3 -13.5 -10.7 -19.8 -13.5 -8.5 -3.7 -16.4 -5.2 -20.8 -4 -4.1 1.1 -9 5.8 -9.2 8.8 -0.4 6.2 0.7 8.4 5.5 10.9 7 3.6 27.3 4 38 0.6z m37.3 -7.4 c23.3 -3.2 46.3 -16.2 46.3 -26.3 0 -4 -5.6 -6.2 -11.9 -4.6 -5.4 1.3 -16.3 7.4 -28.7 16.1 -4.9 3.4 -11.8 8 -15.3 10.3 -6.2 4 -6.3 4.1 -3.5 4.7 4.4 1 4.7 1 13.1 -0.2z m-21.1 -4.6 c-0.3 -1.6 -0.8 -5.3 -1.1 -8.3 -2.5 -21.3 -14.7 -60 -18.9 -60 -4 0 -5.3 23.1 -2.1 38.5 3.1 14.9 7.9 23.9 15.8 29.6 5.2 3.7 7 3.8 6.3 0.2z"/>
 </g>
</svg>